<svg width="190" height="26" viewBox="0 0 190 26" fill="none" xmlns="http://www.w3.org/2000/svg">
<path d="M14.3627 0L17.5873 8.73339H28.0224L19.5802 14.1309L22.8048 22.8643L14.3627 17.4668L5.9205 22.8643L9.14512 14.1309L0.702958 8.73339H11.138L14.3627 0Z" fill="#EDB421"/>
<path d="M54.5785 0L57.8031 8.73339H68.2382L59.796 14.1309L63.0206 22.8643L54.5785 17.4668L46.1363 22.8643L49.3609 14.1309L40.9188 8.73339H51.3539L54.5785 0Z" fill="#EDB421"/>
<path d="M94.7933 0L98.0179 8.73339H108.453L100.011 14.1309L103.235 22.8643L94.7933 17.4668L86.3512 22.8643L89.5758 14.1309L81.1336 8.73339H91.5687L94.7933 0Z" fill="#EDB421"/>
<path d="M135.009 0L138.234 8.73339H148.669L140.227 14.1309L143.451 22.8643L135.009 17.4668L126.567 22.8643L129.792 14.1309L121.349 8.73339H131.785L135.009 0Z" fill="#EDB421"/>
<path d="M175.224 0L178.449 8.73339H188.884L180.442 14.1309L183.666 22.8643L175.224 17.4668L166.782 22.8643L170.006 14.1309L161.564 8.73339H171.999L175.224 0Z" fill="#EDB421"/>
</svg>
