<svg width="51" height="41" viewBox="0 0 51 41" fill="none" xmlns="http://www.w3.org/2000/svg">
<path d="M49.4977 0.550232C49.1312 0.183816 48.6958 0 48.1945 0H18.5363C18.0344 0 17.5997 0.183816 17.2331 0.550232C16.8664 0.917155 16.6829 1.35184 16.6829 1.85379V7.41474H12.0486C11.5272 7.41474 10.9621 7.54023 10.354 7.7912C9.74572 8.04258 9.25828 8.35097 8.89156 8.71789L3.15673 14.4526C2.90586 14.7036 2.68887 14.993 2.50506 15.3215C2.32175 15.6491 2.18652 15.9443 2.09958 16.2046C2.01285 16.4655 1.94975 16.8222 1.91151 17.2764C1.87316 17.7304 1.84861 18.0634 1.83898 18.2759C1.82974 18.4882 1.82974 18.8552 1.83898 19.3766C1.84871 19.8982 1.85358 20.2358 1.85358 20.3905V29.6585C1.35174 29.6585 0.917357 29.8418 0.550333 30.2091C0.183512 30.5752 0 31.0101 0 31.5121C0 31.8014 0.0383458 32.0575 0.115646 32.2793C0.193048 32.5014 0.3232 32.6799 0.507017 32.8153C0.690326 32.9507 0.849694 33.0614 0.984716 33.1485C1.12014 33.2353 1.34697 33.293 1.66551 33.3221C1.98404 33.3512 2.20113 33.3707 2.31708 33.3804C2.43303 33.3895 2.67903 33.3895 3.05549 33.3804C3.43236 33.3707 3.64945 33.3658 3.70747 33.3658H5.56095C5.56095 35.4119 6.28516 37.1595 7.73297 38.6078C9.18128 40.0558 10.9286 40.7801 12.9754 40.7801C15.022 40.7801 16.7695 40.0558 18.2175 38.6078C19.6658 37.1596 20.3895 35.4119 20.3895 33.3658H31.5115C31.5115 35.4119 32.2357 37.1595 33.6836 38.6078C35.1313 40.0558 36.8789 40.7801 38.9258 40.7801C40.973 40.7801 42.7195 40.0558 44.1679 38.6078C45.6162 37.1596 46.34 35.4119 46.34 33.3658C46.3976 33.3658 46.615 33.3707 46.9913 33.3804C47.3679 33.3895 47.6141 33.3895 47.73 33.3804C47.846 33.3707 48.0636 33.3512 48.382 33.3221C48.7004 33.293 48.927 33.2354 49.0624 33.1485C49.1979 33.0617 49.3567 32.9507 49.5401 32.8153C49.7238 32.6799 49.8543 32.5014 49.9313 32.2793C50.0094 32.0574 50.0473 31.8013 50.0473 31.5121V1.85409C50.0477 1.35204 49.8644 0.917865 49.4977 0.550232ZM15.5815 35.9724C14.8481 36.7059 13.979 37.0735 12.975 37.0735C11.9709 37.0735 11.1019 36.7063 10.3682 35.9724C9.63443 35.2392 9.26771 34.3699 9.26771 33.366C9.26771 32.362 9.63484 31.4924 10.3682 30.7588C11.1018 30.0256 11.9708 29.6583 12.975 29.6583C13.979 29.6583 14.848 30.0253 15.5815 30.7588C16.3155 31.4924 16.6825 32.362 16.6825 33.366C16.6825 34.3699 16.3155 35.2392 15.5815 35.9724ZM16.6825 18.5365H5.56055V17.668C5.56055 17.4169 5.64728 17.2045 5.82106 17.0306L11.4688 11.383C11.6425 11.2091 11.8552 11.1225 12.1062 11.1225H16.6825V18.5365ZM41.5322 35.9724C40.7987 36.7059 39.9296 37.0735 38.9258 37.0735C37.9215 37.0735 37.0521 36.7063 36.3186 35.9724C35.5851 35.2392 35.2181 34.3699 35.2181 33.366C35.2181 32.362 35.585 31.4924 36.3186 30.7588C37.0521 30.0256 37.9215 29.6583 38.9258 29.6583C39.9296 29.6583 40.7987 30.0253 41.5322 30.7588C42.2657 31.4928 42.633 32.362 42.633 33.366C42.633 34.3699 42.2664 35.2392 41.5322 35.9724Z" fill="white"/>
</svg>
