<svg width="19" height="19" viewBox="0 0 19 19" fill="none" xmlns="http://www.w3.org/2000/svg">
<path d="M10.0069 18.956C8.53912 18.956 7.23704 18.7547 6.10067 18.3523C4.96905 17.9545 4.01497 17.3674 3.23846 16.5909C2.46194 15.8191 1.87246 14.8722 1.46999 13.75C1.06753 12.6278 0.8663 11.3471 0.8663 9.90767C0.8663 8.50616 1.0699 7.24669 1.4771 6.12926C1.88429 5.01184 2.47615 4.06013 3.25266 3.27415C4.03391 2.48343 4.98325 1.87973 6.10067 1.46307C7.2181 1.0464 8.48704 0.838068 9.90749 0.838068C11.2664 0.838068 12.4643 1.05114 13.5012 1.47727C14.5382 1.90341 15.4094 2.48816 16.1149 3.23153C16.8251 3.9749 17.3601 4.82718 17.72 5.78835C18.0798 6.74953 18.2598 7.76515 18.2598 8.83523C18.2598 9.58333 18.2124 10.3149 18.1177 11.0298C18.023 11.7401 17.8478 12.384 17.5922 12.9616C17.3412 13.5346 16.9766 13.9938 16.4984 14.3395C16.0249 14.6804 15.4094 14.858 14.6518 14.8722C14.2493 14.8864 13.8587 14.839 13.4799 14.7301C13.1011 14.6212 12.7792 14.446 12.514 14.2045C12.2489 13.9583 12.0879 13.6458 12.0311 13.267H11.9458C11.8322 13.5464 11.6428 13.8068 11.3777 14.0483C11.1125 14.285 10.774 14.4744 10.362 14.6165C9.95484 14.7538 9.48136 14.8106 8.94158 14.7869C8.34499 14.7633 7.80759 14.6283 7.32937 14.3821C6.85115 14.1359 6.44158 13.795 6.10067 13.3594C5.7645 12.9238 5.50645 12.4077 5.32653 11.8111C5.1466 11.2145 5.05664 10.5516 5.05664 9.82244C5.05664 9.12169 5.15844 8.49432 5.36204 7.94034C5.56564 7.38163 5.84263 6.90104 6.193 6.49858C6.54812 6.09138 6.95532 5.76941 7.4146 5.53267C7.87388 5.29593 8.3592 5.14678 8.87056 5.08523C9.36772 5.02841 9.82463 5.04261 10.2413 5.12784C10.658 5.21307 11.0036 5.34328 11.2782 5.51847C11.5576 5.69366 11.7328 5.88542 11.8038 6.09375H11.8961V5.2983H13.6433V11.8892C13.6433 12.2633 13.7404 12.5805 13.9345 12.8409C14.1333 13.1013 14.4151 13.2315 14.7797 13.2315C15.2105 13.2315 15.5467 13.0729 15.7882 12.7557C16.0344 12.4384 16.2072 11.9508 16.3066 11.2926C16.4108 10.6345 16.4629 9.79167 16.4629 8.7642C16.4629 8.04451 16.3658 7.36742 16.1717 6.73295C15.9823 6.09375 15.7006 5.5161 15.3265 5C14.9572 4.47917 14.5027 4.03172 13.9629 3.65767C13.4231 3.28362 12.8076 2.99479 12.1163 2.79119C11.4297 2.58759 10.6698 2.4858 9.83647 2.4858C8.70484 2.4858 7.69869 2.66098 6.818 3.01136C5.93732 3.35701 5.19395 3.85653 4.58789 4.50994C3.98656 5.16335 3.52965 5.94697 3.21715 6.8608C2.90939 7.76989 2.7555 8.79025 2.7555 9.92188C2.7555 11.1009 2.91412 12.1473 3.23136 13.0611C3.54859 13.9702 4.01734 14.7372 4.63761 15.3622C5.25787 15.9872 6.02492 16.4607 6.93874 16.7827C7.85257 17.1094 8.90607 17.2727 10.0993 17.2727C10.6296 17.2727 11.1504 17.2254 11.6618 17.1307C12.1731 17.0407 12.6277 16.9366 13.0254 16.8182C13.4279 16.7045 13.7285 16.6122 13.9274 16.5412L14.4245 18.0966C14.131 18.2339 13.7404 18.3688 13.2527 18.5014C12.7697 18.634 12.2441 18.7429 11.676 18.8281C11.1125 18.9134 10.5562 18.956 10.0069 18.956ZM9.35352 13.0469C9.96905 13.0469 10.4638 12.9238 10.8379 12.6776C11.2167 12.4313 11.4889 12.0644 11.6547 11.5767C11.8251 11.0843 11.9103 10.4688 11.9103 9.73011C11.9056 9.01042 11.8133 8.4375 11.6333 8.01136C11.4582 7.58049 11.1835 7.27273 10.8095 7.08807C10.4402 6.89867 9.96431 6.80398 9.38192 6.80398C8.84689 6.80398 8.38997 6.93419 8.01119 7.1946C7.63713 7.45502 7.35067 7.80776 7.15181 8.25284C6.95768 8.69792 6.85825 9.19271 6.85352 9.73722C6.85825 10.3101 6.93874 10.8499 7.09499 11.3565C7.25598 11.8584 7.51639 12.2656 7.87624 12.5781C8.24083 12.8906 8.73325 13.0469 9.35352 13.0469Z" fill="white"/>
</svg>
