<svg width="174" height="56" viewBox="0 0 174 56" fill="none" xmlns="http://www.w3.org/2000/svg">
<rect width="165.264" height="49.0786" fill="#463C4B"/>
<rect x="8.09473" y="6.92136" width="165.264" height="49.0786" fill="#463C4B"/>
<rect x="4.72168" y="3.14609" width="165.264" height="49.0786" fill="white"/>
<path d="M50.598 35V20.4545H59.6179V22.3438H52.7926V26.7756H58.9716V28.6577H52.7926V35H50.598ZM64.5114 20.4545V35H62.3168V20.4545H64.5114ZM67.7074 35V20.4545H69.902V33.1108H76.4929V35H67.7074ZM76.3846 22.3438V20.4545H87.6417V22.3438H83.1033V35H80.9158V22.3438H76.3846ZM90.1293 35V20.4545H95.3139C96.4408 20.4545 97.3759 20.6487 98.1193 21.0369C98.8674 21.4252 99.4261 21.9626 99.7955 22.6491C100.165 23.331 100.349 24.1193 100.349 25.0142C100.349 25.9044 100.162 26.688 99.7884 27.3651C99.419 28.0374 98.8603 28.5606 98.1122 28.9347C97.3688 29.3087 96.4337 29.4957 95.3068 29.4957H91.3793V27.6065H95.108C95.8182 27.6065 96.3958 27.5047 96.8409 27.3011C97.2907 27.0975 97.6198 26.8016 97.8281 26.4134C98.0365 26.0251 98.1406 25.5587 98.1406 25.0142C98.1406 24.465 98.0341 23.9891 97.821 23.5866C97.6127 23.1842 97.2836 22.8764 96.8338 22.6634C96.3887 22.4455 95.804 22.3366 95.0795 22.3366H92.3239V35H90.1293ZM97.3097 28.4375L100.903 35H98.4034L94.8807 28.4375H97.3097ZM104.249 35H101.919L107.153 20.4545H109.689L114.923 35H112.594L108.482 23.0966H108.368L104.249 35ZM104.639 29.304H112.196V31.1506H104.639V29.304ZM117.024 35V20.4545H122.208C123.335 20.4545 124.27 20.6487 125.014 21.0369C125.762 21.4252 126.321 21.9626 126.69 22.6491C127.059 23.331 127.244 24.1193 127.244 25.0142C127.244 25.9044 127.057 26.688 126.683 27.3651C126.314 28.0374 125.755 28.5606 125.007 28.9347C124.263 29.3087 123.328 29.4957 122.201 29.4957H118.274V27.6065H122.002C122.713 27.6065 123.29 27.5047 123.735 27.3011C124.185 27.0975 124.514 26.8016 124.723 26.4134C124.931 26.0251 125.035 25.5587 125.035 25.0142C125.035 24.465 124.929 23.9891 124.716 23.5866C124.507 23.1842 124.178 22.8764 123.728 22.6634C123.283 22.4455 122.699 22.3366 121.974 22.3366H119.218V35H117.024ZM124.204 28.4375L127.798 35H125.298L121.775 28.4375H124.204Z" fill="black"/>
</svg>
