<svg width="50" height="50" viewBox="0 0 50 50" fill="none" xmlns="http://www.w3.org/2000/svg">
<path d="M25.0275 13.1307C28.736 13.1307 29.1749 13.1442 30.6394 13.2118C31.9932 13.2733 32.7285 13.4995 33.2179 13.6901C33.8659 13.9422 34.3282 14.2422 34.8151 14.7291C35.3008 15.2148 35.6021 15.6772 35.8541 16.3252C36.0447 16.8145 36.271 17.5498 36.3324 18.9036C36.3988 20.3681 36.4136 20.8071 36.4136 24.5155C36.4136 28.224 36.3988 28.663 36.3324 30.1274C36.271 31.4812 36.0447 32.2165 35.8541 32.7059C35.6021 33.3539 35.302 33.8162 34.8151 34.3031C34.3294 34.7888 33.8671 35.0901 33.2179 35.3422C32.7285 35.5327 31.9932 35.759 30.6394 35.8205C29.1749 35.8869 28.736 35.9016 25.0275 35.9016C21.319 35.9016 20.88 35.8869 19.4156 35.8205C18.0618 35.759 17.3265 35.5327 16.8371 35.3422C16.1891 35.0901 15.7268 34.7888 15.2399 34.3031C14.7542 33.8174 14.4529 33.3551 14.2009 32.7059C14.0115 32.2165 13.784 31.4812 13.7225 30.1274C13.6561 28.663 13.6414 28.224 13.6414 24.5155C13.6414 20.8071 13.6549 20.3681 13.7225 18.9036C13.784 17.5498 14.0115 16.8145 14.2009 16.3252C14.4529 15.6772 14.7542 15.2148 15.2399 14.7291C15.7256 14.2435 16.1879 13.9422 16.8371 13.6901C17.3265 13.4995 18.0618 13.2733 19.4156 13.2118C20.88 13.1442 21.319 13.1307 25.0275 13.1307ZM25.0275 10.6284C21.2563 10.6284 20.7829 10.6444 19.3012 10.712C17.8233 10.7797 16.8138 11.0145 15.9297 11.3576C15.0161 11.7129 14.2414 12.1875 13.4692 12.9597C12.6971 13.7319 12.2224 14.5066 11.8683 15.4202C11.5252 16.303 11.2904 17.3125 11.2228 18.7917C11.1551 20.2734 11.1392 20.7456 11.1392 24.518C11.1392 28.2904 11.1551 28.7626 11.2228 30.2442C11.2904 31.7222 11.5252 32.7317 11.8683 33.6158C12.2224 34.5294 12.6971 35.3028 13.4692 36.0762C14.2414 36.8484 15.0161 37.323 15.9297 37.6784C16.8125 38.0215 17.822 38.2563 19.3012 38.3239C20.7829 38.3916 21.2551 38.4075 25.0275 38.4075C28.7987 38.4075 29.2721 38.3916 30.7537 38.3239C32.2317 38.2563 33.2412 38.0215 34.1253 37.6784C35.0389 37.323 35.8135 36.8484 36.5857 36.0762C37.3579 35.304 37.8325 34.5294 38.1879 33.6158C38.531 32.7329 38.7658 31.7234 38.8334 30.2442C38.9011 28.7626 38.9171 28.2904 38.9171 24.518C38.9171 20.7456 38.9011 20.2734 38.8334 18.7917C38.7658 17.3138 38.531 16.3043 38.1879 15.4202C37.8325 14.5066 37.3579 13.7319 36.5857 12.9597C35.8135 12.1875 35.0389 11.7129 34.1253 11.3576C33.2424 11.0145 32.2329 10.7797 30.7537 10.712C29.2721 10.6444 28.7987 10.6284 25.0275 10.6284Z" fill="white"/>
<path d="M25.0272 17.3853C21.0888 17.3853 17.8955 20.5785 17.8955 24.5169C17.8955 28.4553 21.0888 31.6486 25.0272 31.6486C28.9656 31.6486 32.1589 28.4553 32.1589 24.5169C32.1589 20.5785 28.9656 17.3853 25.0272 17.3853ZM25.0272 29.1452C22.4709 29.1452 20.3977 27.0721 20.3977 24.5157C20.3977 21.9594 22.4709 19.8863 25.0272 19.8863C27.5835 19.8863 29.6566 21.9594 29.6566 24.5157C29.6566 27.0721 27.5835 29.1452 25.0272 29.1452Z" fill="white"/>
<path d="M34.1066 17.1021C34.1066 18.0219 33.3603 18.7682 32.4405 18.7682C31.5196 18.7682 30.7744 18.0219 30.7744 17.1021C30.7744 16.1824 31.5208 15.436 32.4405 15.436C33.3615 15.436 34.1066 16.1824 34.1066 17.1021Z" fill="white"/>
<circle cx="25" cy="25" r="23.5" stroke="white" stroke-width="3"/>
</svg>
