<svg width="169" height="45" viewBox="0 0 169 45" fill="none" xmlns="http://www.w3.org/2000/svg">
<path d="M62.1167 21.028C62.1167 9.94734 48.3685 0.959705 31.4192 0.959705C14.4699 0.959705 0.72168 9.98838 0.72168 21.028V22.2181C0.72168 33.9554 12.7462 43.4766 31.4192 43.4766C50.2152 43.4766 62.1167 33.9554 62.1167 22.2181V21.028Z" fill="#28316B"/>
<path d="M60.9649 21.0266C60.9649 31.4507 47.7502 39.9048 31.4576 39.9048C15.1239 39.9048 1.90918 31.4507 1.90918 21.0266C1.90918 10.6026 15.1239 2.1485 31.4165 2.1485C47.7502 2.10746 60.9649 10.6026 60.9649 21.0266Z" fill="#50B4E9"/>
<path d="M21.6369 15.049C21.6369 15.09 21.3086 15.3773 21.5138 15.6235C21.9652 16.2391 23.4016 16.5674 24.879 16.2391C25.7408 16.0339 26.8489 15.1721 27.9159 14.3103C29.065 13.3664 30.2552 12.4635 31.4043 12.0941C32.6354 11.6837 33.4152 11.8889 33.9487 12.0121C34.5233 12.1762 35.1799 12.5456 36.2469 13.3664C38.2578 14.8848 46.3837 21.9846 47.779 23.2158C48.9281 22.7233 53.9349 20.5483 60.7475 19.0298C60.1729 15.3773 57.9568 12.0531 54.5915 9.34449C49.9541 11.3144 44.2086 12.3404 38.6272 9.59073C38.5862 9.59073 35.5903 8.15435 32.5944 8.23643C28.1621 8.31851 26.2333 10.2474 24.1813 12.2993L21.6369 15.049Z" fill="white"/>
<path d="M47.4628 23.9719C47.3808 23.8899 37.9417 15.6409 35.7666 13.9994C34.5354 13.0555 33.8377 12.8503 33.099 12.7271C32.7297 12.6861 32.1962 12.7682 31.8268 12.8503C30.8419 13.1375 29.5286 13.9994 28.3795 14.9022C27.1894 15.8461 26.0402 16.749 25.0143 16.9952C23.66 17.2825 22.0594 16.9542 21.2797 16.4207C20.9924 16.2155 20.7462 15.9693 20.6641 15.7641C20.3768 15.1074 20.9103 14.615 20.9924 14.5329L23.6189 11.7011L24.5218 10.7983C23.701 10.9214 22.9213 11.1266 22.1415 11.3318C21.1976 11.6191 20.2947 11.8653 19.3508 11.8653C18.9815 11.8653 16.9295 11.537 16.5191 11.4139C14.1799 10.7983 12.1279 10.1417 9.00888 8.70527C5.31533 11.4549 2.81193 14.9022 2.11426 18.7189C2.64777 18.842 3.5096 19.1293 3.87895 19.2114C12.292 21.0992 14.8775 22.987 15.37 23.3974C15.9035 22.8228 16.6422 22.4535 17.463 22.4535C18.4069 22.4535 19.2277 22.9049 19.7202 23.6436C20.2126 23.2743 20.8693 22.946 21.7311 22.946C22.1005 22.946 22.5109 23.028 22.9213 23.1512C23.8652 23.4795 24.3576 24.0951 24.6039 24.6696C24.9322 24.5055 25.3015 24.4234 25.753 24.4234C26.2044 24.4234 26.6969 24.5055 27.1483 24.7106C28.7078 25.3673 28.954 26.8857 28.7899 28.0348H29.1182C30.965 28.0348 32.4424 29.5123 32.4424 31.359C32.4424 31.9336 32.2782 32.4671 32.032 32.9185C32.5245 33.2058 33.7967 33.8214 34.9048 33.6983C35.8076 33.5752 36.1359 33.2879 36.2591 33.1237C36.3411 33.0006 36.4232 32.8775 36.3411 32.7544L33.9609 30.1279C33.9609 30.1279 33.5505 29.7585 33.7146 29.6354C33.8377 29.4712 34.084 29.7175 34.2481 29.8406C35.4383 30.8666 36.9157 32.385 36.9157 32.385C36.9567 32.385 37.0388 32.5902 37.5723 32.6723C38.0238 32.7544 38.8856 32.7133 39.4601 32.2209C39.6243 32.0977 39.7474 31.9336 39.8705 31.8105L39.8295 31.8515C40.4451 31.0718 39.7474 30.292 39.7474 30.292L37.0799 27.173C37.0799 27.173 36.6695 26.8037 36.8336 26.6395C36.9567 26.5164 37.203 26.7216 37.3671 26.8447C38.229 27.5834 39.5012 28.8146 40.6503 29.9637C40.8965 30.1279 41.9225 30.7845 43.3178 29.8816C44.1386 29.3481 44.3028 28.6504 44.3028 28.158C44.2618 27.5013 43.7282 27.0089 43.7282 27.0089L39.9526 23.2332C39.9526 23.2332 39.5422 22.9049 39.7064 22.6997C39.8295 22.5356 40.0757 22.7818 40.2399 22.9049C41.43 23.9309 44.7132 26.8857 44.7132 26.8857C44.7542 26.9268 45.9033 27.7065 47.2576 26.8447C47.7501 26.5164 48.0784 26.065 48.1195 25.4904C48.1605 24.5465 47.4628 23.9719 47.4628 23.9719Z" fill="white"/>
<path d="M29.1647 28.8032C28.5902 28.8032 27.9335 29.1315 27.8515 29.0904C27.8104 29.0494 27.8925 28.8442 27.9335 28.68C27.9746 28.5569 28.7543 26.2177 26.8665 25.4379C25.4301 24.8223 24.5683 25.52 24.24 25.8483C24.1579 25.9304 24.1169 25.9304 24.1169 25.8073C24.0758 25.3969 23.9117 24.2478 22.6805 23.8784C20.9158 23.3449 19.7667 24.5761 19.4794 25.0275C19.3563 24.0015 18.4945 23.2218 17.4685 23.2218C16.3194 23.2218 15.4165 24.1247 15.4165 25.2738C15.4165 26.4229 16.3194 27.3257 17.4685 27.3257C18.002 27.3257 18.5355 27.1205 18.9049 26.7512V26.8333C18.8228 27.3257 18.6586 29.2135 20.5875 29.9523C21.3672 30.2395 22.0239 30.0343 22.5574 29.6239C22.7215 29.5008 22.7626 29.5419 22.7215 29.706C22.6394 30.1985 22.7215 31.1834 24.1579 31.799C25.2249 32.2505 25.8816 31.799 26.292 31.3886C26.4561 31.2245 26.5382 31.2655 26.5382 31.5118C26.5792 32.9071 27.7283 33.9741 29.1237 33.9741C30.5601 33.9741 31.7092 32.825 31.7092 31.3886C31.7502 29.9523 30.6011 28.8032 29.1647 28.8032Z" fill="white"/>
<path d="M29.1647 33.7899C27.8514 33.7899 26.8255 32.7639 26.7844 31.4917C26.7844 31.3686 26.7844 31.0813 26.5382 31.0813C26.4561 31.0813 26.333 31.1223 26.2509 31.2455C25.9226 31.5327 25.5532 31.779 25.0197 31.779C24.7735 31.779 24.5273 31.7379 24.24 31.6148C22.8857 31.0403 22.8446 30.0964 22.9267 29.727C22.9267 29.6449 22.9267 29.5218 22.8857 29.4397L22.8036 29.3576H22.7215C22.6394 29.3576 22.5574 29.3987 22.4753 29.4397C22.0649 29.727 21.6955 29.8501 21.3262 29.8501C21.121 29.8501 20.9158 29.8091 20.6695 29.727C18.8638 29.0293 19.028 27.3057 19.1101 26.8132C19.1101 26.6901 19.1101 26.649 19.028 26.567L18.8638 26.4849L18.7407 26.608C18.3713 26.9363 17.9199 27.1415 17.4274 27.1415C16.4014 27.1415 15.5396 26.3207 15.5396 25.2537C15.5396 24.1867 16.4014 23.3659 17.4274 23.3659C18.3713 23.3659 19.1511 24.0636 19.2742 25.0075L19.3563 25.4999L19.6436 25.0895C19.6846 25.0485 20.4233 23.8994 21.8187 23.8994C22.0649 23.8994 22.3522 23.9404 22.6394 24.0225C23.7475 24.3508 23.9527 25.3768 23.9527 25.7872C23.9937 26.0335 24.1579 26.0335 24.1989 26.0335C24.281 26.0335 24.3631 25.9924 24.4041 25.9103C24.6093 25.7051 25.0608 25.3358 25.7995 25.3358C26.1278 25.3358 26.4561 25.4179 26.8255 25.582C28.5902 26.3207 27.7694 28.5779 27.7694 28.6189C27.6052 28.9883 27.6052 29.1525 27.7694 29.2345L27.8514 29.2756H27.8925C27.9746 29.2756 28.0566 29.2345 28.2208 29.1935C28.467 29.1114 28.8364 28.9883 29.1647 28.9883C30.478 28.9883 31.586 30.0964 31.586 31.4096C31.545 32.7229 30.478 33.7899 29.1647 33.7899ZM47.8377 22.9965C44.9239 20.4521 38.1934 14.5835 36.3876 13.2292C35.3617 12.4494 34.623 12.039 34.0074 11.8338C33.7201 11.7517 33.3097 11.6697 32.8172 11.6697C32.3658 11.6697 31.8733 11.7517 31.3398 11.9159C30.1497 12.2852 29.0006 13.2292 27.8514 14.132L27.8104 14.1731C26.7434 14.9938 25.6764 15.8967 24.8145 16.0609C24.4452 16.143 24.0758 16.184 23.7065 16.184C22.7626 16.184 21.9418 15.8967 21.6545 15.5274C21.6135 15.4453 21.6545 15.3632 21.7366 15.199V15.158L24.281 12.4084C26.292 10.3974 28.1798 8.50962 32.5299 8.3865H32.7351C35.4437 8.3865 38.1523 9.61768 38.4807 9.7408C41.0251 10.972 43.6516 11.6286 46.3192 11.6286C49.0688 11.6286 51.9006 10.9309 54.8964 9.57664C54.5681 9.28937 54.1988 9.04313 53.8704 8.75585C51.285 9.90496 48.7816 10.4795 46.3602 10.4795C43.8979 10.4795 41.4355 9.86392 39.0552 8.71481C38.9321 8.67377 35.9362 7.23739 32.8172 7.23739H32.571C28.9185 7.31947 26.8255 8.63274 25.4712 9.78184C24.1169 9.82288 22.9678 10.1512 21.9007 10.4385C20.9568 10.6847 20.1771 10.9309 19.3973 10.9309C19.069 10.9309 18.4945 10.8899 18.4534 10.8899C17.5506 10.8489 13.0362 9.7408 9.42474 8.3865C9.05539 8.63273 8.68603 8.92001 8.35772 9.20729C12.0923 10.7257 16.6887 11.9159 18.1251 12.039C18.5355 12.08 18.9459 12.1211 19.3973 12.1211C20.3412 12.1211 21.2851 11.8338 22.229 11.5876C22.7626 11.4234 23.3782 11.2593 23.9937 11.1361L23.5013 11.6286L20.9158 14.4603C20.7106 14.6655 20.2592 15.2401 20.5464 15.8967C20.6695 16.184 20.9158 16.4302 21.2441 16.6765C21.8597 17.0869 22.9678 17.3741 23.9937 17.3741C24.4041 17.3741 24.7735 17.3331 25.1018 17.251C26.2099 17.0048 27.3179 16.1019 28.5491 15.117C29.5341 14.3372 30.8884 13.3933 31.9554 13.106C32.2427 13.024 32.612 12.9829 32.8993 12.9829H33.1455C33.8432 13.065 34.4998 13.3112 35.731 14.2141C37.8651 15.8146 47.3452 24.1046 47.4273 24.1867C47.4273 24.1867 48.0429 24.7202 48.0018 25.582C47.9608 26.0745 47.7145 26.4849 47.2631 26.7722C46.8527 27.0184 46.4423 27.1415 46.0319 27.1415C45.4163 27.1415 44.9649 26.8542 44.9239 26.8132C44.8828 26.7722 41.6407 23.8173 40.4506 22.8324C40.2454 22.6682 40.0812 22.5451 39.876 22.5451C39.7939 22.5451 39.6708 22.5861 39.6298 22.6682C39.4246 22.9145 39.6708 23.2017 39.917 23.448L43.6927 27.2646C43.6927 27.2646 44.1441 27.7161 44.2262 28.2906C44.2672 28.9062 43.9389 29.4397 43.3233 29.8501C42.8719 30.1374 42.4204 30.3016 41.969 30.3016C41.3945 30.3016 40.9841 30.0553 40.902 29.9732L40.3685 29.4397C39.3835 28.4548 38.3575 27.4698 37.6188 26.8132C37.3316 26.608 37.1264 26.4438 36.9212 26.4438C36.8391 26.4438 36.757 26.4849 36.6749 26.5259C36.5928 26.608 36.5108 26.7722 36.757 27.0594C36.8391 27.1826 36.9622 27.2646 36.9622 27.2646L39.7118 30.3836C39.7529 30.4247 40.2864 31.0813 39.7529 31.6969L39.6708 31.82L39.4246 32.0663C38.9731 32.4356 38.3165 32.4766 38.0703 32.4766C37.9472 32.4766 37.824 32.4766 37.7009 32.4356C37.4136 32.3946 37.2495 32.3125 37.1674 32.1894L37.1264 32.1483C36.9622 31.9842 35.5669 30.5888 34.4178 29.6039C34.2536 29.4808 34.0894 29.3166 33.8842 29.3166C33.8022 29.3166 33.7201 29.3576 33.638 29.4397C33.3918 29.686 33.7611 30.0553 33.8842 30.2195L36.2235 32.805C36.2235 32.846 36.1825 32.887 36.1414 32.9691C36.0593 33.0922 35.7721 33.3795 34.9102 33.4616H34.5819C33.679 33.4616 32.7762 33.0512 32.2837 32.7639C32.4889 32.3125 32.612 31.779 32.612 31.2865C32.612 29.3576 31.0525 27.7571 29.0826 27.7571H28.9595C29.0416 26.8542 28.9185 25.2127 27.1948 24.474C26.7023 24.2688 26.2099 24.1456 25.7174 24.1456C25.348 24.1456 24.9787 24.2277 24.6504 24.3508C24.281 23.6532 23.7065 23.1607 22.9267 22.8734C22.5574 22.8324 22.147 22.7503 21.6955 22.7503C20.9979 22.7503 20.3002 22.9555 19.7256 23.3659C19.1511 22.6682 18.2893 22.2578 17.4274 22.2578C16.6477 22.2578 15.909 22.5861 15.3344 23.1197C14.5957 22.5451 11.6819 20.6983 3.92546 18.9336C3.5561 18.8516 2.69428 18.6053 2.16076 18.4412C2.07868 18.8516 1.99661 19.303 1.95557 19.7134C1.95557 19.7134 3.39195 20.0417 3.67922 20.1238C11.6409 21.8885 14.2674 23.7352 14.7188 24.0636C14.5547 24.4329 14.4726 24.8023 14.4726 25.2127C14.4726 26.8542 15.8269 28.2085 17.4685 28.2085C17.6326 28.2085 17.8378 28.2085 18.002 28.1675C18.2482 29.3576 19.028 30.3016 20.2592 30.753C20.6285 30.8761 20.9568 30.9582 21.3262 30.9582C21.5724 30.9582 21.7776 30.9171 22.0238 30.8761C22.229 31.4507 22.7626 32.1483 23.8706 32.5998C24.281 32.7639 24.6504 32.846 25.0608 32.846C25.3891 32.846 25.6764 32.805 25.9636 32.6818C26.4971 33.9951 27.7694 34.8569 29.2058 34.8569C30.1497 34.8569 31.0525 34.4876 31.7092 33.7899C32.2837 34.1182 33.4739 34.6928 34.664 34.6928C34.8282 34.6928 34.9513 34.6928 35.1154 34.6517C36.3056 34.4876 36.8801 34.0361 37.1264 33.6668C37.1674 33.5847 37.2084 33.5437 37.2495 33.4616C37.5368 33.5437 37.824 33.6258 38.1934 33.6258C38.85 33.6258 39.4656 33.4206 40.1222 32.9281C40.7378 32.4766 41.1893 31.82 41.2713 31.2865V31.2455C41.4765 31.2865 41.6817 31.3275 41.928 31.3275C42.6256 31.3275 43.2823 31.1223 43.8979 30.712C45.1291 29.8912 45.3342 28.8652 45.3342 28.1675C45.5394 28.2085 45.7857 28.2496 45.9909 28.2496C46.6065 28.2496 47.2631 28.0444 47.8377 27.675C48.6174 27.1826 49.0688 26.4439 49.1099 25.582C49.1509 25.0075 49.0278 24.3919 48.6995 23.8994C50.7514 22.9965 55.43 21.3139 60.9703 20.0417C60.9292 19.6313 60.8882 19.1799 60.8061 18.7695C54.0756 20.2879 49.0688 22.422 47.8377 22.9965Z" fill="#28316B"/>
<path d="M164.001 16.194C163.468 16.8917 162.688 17.261 161.703 17.261C160.718 17.261 159.938 16.8917 159.405 16.194C158.871 15.4963 158.584 14.4703 158.584 13.1571C158.584 11.8438 158.871 10.8178 159.405 10.1202C159.938 9.42249 160.718 9.05314 161.703 9.05314C162.729 9.05314 163.468 9.42249 164.001 10.1202C164.535 10.8178 164.822 11.8438 164.822 13.1571C164.822 14.4703 164.535 15.4963 164.001 16.194ZM166.751 8.23235C165.643 6.83701 163.96 6.13934 161.703 6.13934C159.446 6.13934 157.763 6.83701 156.655 8.23235C155.547 9.62769 154.973 11.2693 154.973 13.1571C154.973 15.0859 155.506 16.7275 156.655 18.0818C157.763 19.4361 159.446 20.1338 161.703 20.1338C163.96 20.1338 165.643 19.4361 166.751 18.0818C167.859 16.7275 168.393 15.0859 168.393 13.1571C168.434 11.2693 167.859 9.62769 166.751 8.23235Z" fill="#28316B"/>
<path d="M136.683 14.5942C136.642 15.7433 136.314 16.5231 135.699 16.9745C135.083 17.4259 134.385 17.6311 133.606 17.6311C133.113 17.6311 132.744 17.508 132.415 17.2207C132.087 16.9745 131.923 16.5231 131.923 15.9485C131.923 15.2919 132.21 14.7994 132.744 14.4711C133.072 14.3069 133.606 14.1428 134.344 14.0197L135.124 13.8555C135.493 13.7734 135.822 13.6913 136.027 13.6093C136.273 13.5272 136.478 13.4041 136.683 13.2809V14.5942ZM138.448 7.08399C137.34 6.50944 136.027 6.22217 134.59 6.22217C132.374 6.22217 130.774 6.79672 129.871 7.94582C129.296 8.68453 128.968 9.62844 128.886 10.7775H132.21C132.292 10.2851 132.456 9.87468 132.703 9.5874C133.031 9.177 133.647 8.97181 134.467 8.97181C135.206 8.97181 135.781 9.05389 136.15 9.30012C136.519 9.50532 136.725 9.87468 136.725 10.4082C136.725 10.8596 136.478 11.1879 135.986 11.3931C135.699 11.5163 135.247 11.5983 134.59 11.6804L133.4 11.8035C132.046 11.9677 131.061 12.255 130.363 12.6654C129.091 13.4041 128.476 14.5532 128.476 16.1947C128.476 17.4259 128.845 18.4109 129.666 19.1085C130.445 19.8062 131.43 20.0935 132.621 20.1345C140.131 20.4629 140.049 16.1537 140.131 15.2919V10.3261C140.131 8.72557 139.556 7.65855 138.448 7.08399Z" fill="#28316B"/>
<path d="M121.282 9.16354C122.144 9.16354 122.76 9.40978 123.17 9.94329C123.457 10.3537 123.621 10.7641 123.704 11.2566H127.397C127.192 9.36874 126.535 8.09652 125.427 7.35781C124.319 6.6191 122.883 6.24974 121.159 6.24974C119.107 6.24974 117.507 6.86533 116.357 8.13756C115.208 9.40978 114.634 11.1334 114.634 13.3906C114.634 15.4015 115.167 17.0021 116.193 18.2743C117.26 19.5465 118.902 20.1621 121.118 20.1621C123.334 20.1621 125.017 19.4234 126.166 17.9049C126.864 16.961 127.274 15.9761 127.356 14.9501H123.662C123.58 15.6478 123.375 16.2223 123.006 16.6327C122.636 17.0431 122.062 17.2893 121.2 17.2893C120.01 17.2893 119.189 16.7558 118.738 15.6478C118.491 15.0732 118.368 14.2935 118.368 13.3496C118.368 12.3236 118.491 11.5438 118.738 10.9282C119.23 9.73809 120.051 9.16354 121.282 9.16354Z" fill="#28316B"/>
<path d="M113.653 6.27093C106.019 6.27093 106.471 13.0014 106.471 13.0014V19.855H109.918V13.4118C109.918 12.3448 110.041 11.565 110.329 11.0725C110.821 10.1697 111.724 9.71824 113.119 9.71824H113.53C113.694 9.71824 113.899 9.75928 114.104 9.75928V6.22989C113.94 6.22989 113.858 6.22989 113.817 6.18885C113.776 6.27093 113.694 6.27093 113.653 6.27093Z" fill="#28316B"/>
<path d="M96.3073 9.81675C96.7997 9.32428 97.4564 9.07804 98.3592 9.07804C99.18 9.07804 99.8367 9.32428 100.411 9.77572C100.945 10.2682 101.273 10.9248 101.314 11.8687H95.4044C95.4865 11.0069 95.8148 10.3503 96.3073 9.81675ZM100.945 16.2599C100.781 16.4651 100.657 16.6293 100.493 16.7935C100.001 17.2039 99.3442 17.327 98.5644 17.327C97.8257 17.327 97.2512 17.2039 96.7177 16.8755C95.8558 16.342 95.3633 15.4392 95.3223 14.1259H104.884C104.884 12.9768 104.843 12.115 104.761 11.4994C104.597 10.4734 104.269 9.57052 103.735 8.79077C103.12 7.8879 102.381 7.27231 101.478 6.86191C100.575 6.45152 99.5494 6.24632 98.4003 6.24632C96.4714 6.24632 94.9119 6.86192 93.6807 8.05206C92.4906 9.28324 91.875 11.0069 91.875 13.3051C91.875 15.7264 92.5316 17.4911 93.8859 18.5582C95.2402 19.6252 96.7587 20.1587 98.5234 20.1587C100.657 20.1587 102.299 19.5021 103.448 18.2298C104.105 17.5732 104.474 16.8755 104.638 16.2189H100.945V16.2599Z" fill="#28316B"/>
<path d="M90.4729 19.835H87.3129V11.8733C87.3129 11.1346 87.0666 9.41094 84.9736 9.41094C83.5783 9.41094 82.5933 10.3959 82.5933 11.8733V19.835H79.4333V11.8733C79.4333 11.1346 79.2281 9.41094 77.1351 9.41094C75.7397 9.41094 74.7548 10.3959 74.7548 11.8733V19.835H71.5537V11.9554C71.5537 8.67223 73.7288 6.20987 77.094 6.20987C78.7767 6.20987 80.131 6.90754 81.0338 8.05664C81.9777 6.94858 83.3731 6.20987 84.9736 6.20987C88.4209 6.20987 90.4729 8.59015 90.4729 11.9554V19.835Z" fill="#28316B"/>
<path d="M149.839 16.2395C149.347 16.9782 148.608 17.3065 147.623 17.3065C146.638 17.3065 145.94 16.9372 145.448 16.1984C144.955 15.4597 144.75 14.3927 144.75 13.2026C144.75 12.0945 144.996 11.1506 145.448 10.3708C145.899 9.63214 146.638 9.22174 147.664 9.22174C148.321 9.22174 148.895 9.42694 149.388 9.83733C150.208 10.535 150.619 11.7662 150.619 13.3667C150.578 14.5569 150.332 15.5008 149.839 16.2395ZM153.984 2.08088C153.984 2.08088 150.496 1.71152 150.496 4.50221V8.19576C150.126 7.58016 149.593 7.08769 148.977 6.75937C148.362 6.39002 147.664 6.22586 146.843 6.22586C145.119 6.22586 143.724 6.88249 142.698 8.15472C141.672 9.42694 141.139 11.3148 141.139 13.5309C141.139 15.4597 141.672 17.0603 142.698 18.2915C143.765 19.5226 145.817 20.0562 147.623 20.0562C153.984 20.0562 153.902 14.5979 153.902 14.5979L153.984 2.08088Z" fill="#28316B"/>
<path d="M80.8081 32.4418C80.8081 31.1286 80.5619 30.1436 80.0284 29.446C79.5359 28.7483 78.7972 28.3789 77.8533 28.3789C76.9504 28.3789 76.2117 28.7483 75.7192 29.446C75.2268 30.1026 75.0216 31.0875 75.0216 32.4418C75.0216 33.7141 75.2678 34.658 75.8013 35.3146C76.2938 36.0123 77.0325 36.3816 77.9764 36.3816C78.8382 36.3816 79.5359 36.0123 80.0694 35.3146C80.5619 34.5759 80.8081 33.632 80.8081 32.4418ZM75.0216 41.7988C75.0216 42.2913 74.8164 42.7017 74.447 43.03C74.1187 43.3173 73.6672 43.4814 73.2158 43.4814H71.5332V31.4569C71.5332 29.1176 72.3129 27.6402 73.6262 26.6553C74.5701 25.9576 76.0065 25.2599 78.8382 25.3831C80.3156 25.4651 81.711 26.0807 82.6549 27.2298C83.804 28.6252 84.2965 30.1847 84.2965 32.2366C84.2965 34.3297 83.804 36.0533 82.778 37.3666C81.752 38.6388 80.4388 39.2544 78.8793 39.2544C78.0174 39.2544 77.2787 39.0902 76.6631 38.8029C75.9655 38.4746 75.4319 37.9411 75.0216 37.2435V41.7988Z" fill="#50B4E9"/>
<path d="M101.541 32.4428C101.541 34.741 102.198 36.0132 103.552 36.2595C104.865 36.5057 105.85 36.2184 106.507 35.3155C106.794 34.9462 107.04 34.3716 107.163 33.5919C107.287 32.8121 107.287 32.0324 107.205 31.2526C107.081 30.4729 106.794 29.8163 106.384 29.2007C105.932 28.5851 105.317 28.2978 104.496 28.2978C103.347 28.2978 102.608 28.7082 102.198 29.57C101.746 30.4319 101.541 31.3758 101.541 32.4428ZM107.205 38.1883V37.3265C106.589 38.2704 105.809 38.8449 104.783 39.0912C103.757 39.3374 102.772 39.2553 101.746 38.8449C100.761 38.4345 99.8995 37.6958 99.1608 36.6288C98.4631 35.5207 98.0938 34.1254 98.0938 32.3607C98.0938 30.3087 98.5862 28.6261 99.5301 27.3129C100.474 26.0406 101.992 25.425 104.086 25.384C106.137 25.343 107.369 25.7944 108.518 26.6973C109.79 27.6822 110.57 29.1596 110.57 31.4989V38.5577C110.57 40.8148 109.01 44.9598 104.086 44.6315C101.049 44.4263 99.3249 43.1541 98.381 40.3224H102.034C102.321 40.7738 102.69 41.1431 103.265 41.3894C103.798 41.6356 104.373 41.7177 104.906 41.5946C105.44 41.4715 105.973 41.1431 106.425 40.6096C106.917 40.0761 107.163 39.2553 107.205 38.1883Z" fill="#50B4E9"/>
<path d="M93.4208 33.8374C93.3797 34.9865 93.0514 35.7663 92.4358 36.2177C91.8202 36.6691 91.1226 36.8743 90.3428 36.8743C89.8503 36.8743 89.481 36.7512 89.1116 36.4639C88.7833 36.2177 88.6192 35.7663 88.6192 35.1917C88.6192 34.5351 88.9064 34.0426 89.44 33.7143C89.7683 33.5501 90.3018 33.386 91.0405 33.2628L91.8202 33.0987C92.2306 33.0166 92.5179 32.9345 92.7231 32.8525C92.9693 32.7704 93.1745 32.6473 93.3797 32.5241V33.8374H93.4208ZM95.1855 26.3272C94.0774 25.7526 92.7641 25.4654 91.3278 25.4654C89.1116 25.4654 87.5521 26.0399 86.6082 27.189C86.0337 27.9277 85.7054 28.8716 85.6233 30.0207H88.9475C89.0296 29.5283 89.1937 29.1179 89.44 28.8306C89.7683 28.4202 90.3839 28.215 91.2047 28.215C91.9434 28.215 92.5179 28.2971 92.8873 28.5433C93.2566 28.7485 93.4618 29.1179 93.4618 29.6514C93.4618 30.1028 93.2156 30.4311 92.7231 30.6363C92.4358 30.7594 91.9844 30.8415 91.3278 30.9236L90.1376 31.0467C88.7833 31.2109 87.7984 31.4981 87.1007 31.9085C85.8285 32.6473 85.2129 33.7964 85.2129 35.4379C85.2129 36.6691 85.6233 37.6541 86.403 38.3107C87.1828 39.0084 88.1677 39.2956 89.3579 39.3367C96.8681 39.665 96.786 35.3559 96.8681 34.494V29.5283C96.8681 27.9688 96.2935 26.9017 95.1855 26.3272Z" fill="#50B4E9"/>
<path d="M120.935 35.3835C120.401 36.0811 119.622 36.4505 118.637 36.4505C117.652 36.4505 116.872 36.0811 116.339 35.3835C115.805 34.6858 115.518 33.6598 115.518 32.3465C115.518 31.0333 115.805 30.0073 116.339 29.3096C116.872 28.612 117.652 28.2426 118.637 28.2426C119.663 28.2426 120.401 28.612 120.935 29.3096C121.468 30.0073 121.756 31.0333 121.756 32.3465C121.756 33.6598 121.468 34.6858 120.935 35.3835ZM123.685 27.4218C122.577 26.0265 120.894 25.3288 118.637 25.3288C116.38 25.3288 114.697 26.0265 113.589 27.4218C112.481 28.8171 111.906 30.4587 111.906 32.3465C111.906 34.2754 112.44 35.917 113.589 37.2713C114.697 38.6256 116.38 39.3232 118.637 39.3232C120.894 39.3232 122.577 38.6256 123.685 37.2713C124.793 35.917 125.326 34.2754 125.326 32.3465C125.367 30.4587 124.793 28.8171 123.685 27.4218Z" fill="#50B4E9"/>
</svg>
