<svg width="34" height="40" viewBox="0 0 34 40" fill="none" xmlns="http://www.w3.org/2000/svg">
<path d="M16.8006 39.6013C16.7286 39.6013 16.6578 39.5881 16.5906 39.5629C16.425 39.5017 0 33.1379 0 14.3381V0.60002C0 0.268809 0.268809 0 0.60002 0H33.0011C33.3323 0 33.6011 0.268809 33.6011 0.60002V14.3381C33.6011 33.1379 17.1762 39.5005 17.0106 39.5629C16.9434 39.5881 16.8726 39.6013 16.8006 39.6013ZM1.20004 1.20004V14.3381C1.20004 31.1699 14.9237 37.5601 16.8006 38.3533C18.6762 37.5577 32.4011 31.1471 32.4011 14.3381V1.20004H1.20004Z" fill="white"/>
<path d="M0.600098 0H16.8006V38.4013L11.4005 36.0012L6.6003 31.8011L2.40016 24.6008L0.600098 16.8006V0Z" fill="white"/>
</svg>
