<svg width="38" height="44" viewBox="0 0 38 44" fill="none" xmlns="http://www.w3.org/2000/svg">
<path d="M0.0498161 36.8418L1.86937 12.9279C2.12928 10.8485 3.68892 9.28883 5.76838 9.28883H12.5266V6.9496C12.5266 3.57042 15.386 0.711212 18.765 0.711212C22.144 0.711212 25.0034 3.57042 25.0034 6.9496V9.28898H32.2814C34.3609 9.28898 35.9205 10.8486 36.1804 12.9281L38 36.8418C38 38.6614 37.4802 40.4809 36.1804 41.7805C35.1408 43.0802 33.3212 43.86 31.5017 43.86H6.28821C4.46866 43.86 2.64911 43.0802 1.86937 41.7805C0.569645 40.4809 -0.210098 38.6614 0.0498161 36.8418ZM22.4041 6.9496C22.4041 4.87014 20.8445 3.3105 18.765 3.3105C16.6855 3.3105 15.1259 4.87014 15.1259 6.9496V9.28898H22.4039L22.4041 6.9496ZM3.16909 39.961C3.94883 40.7407 4.98864 41.2607 6.02829 41.2607H31.2419C32.2816 41.2607 33.3214 40.7409 34.1011 39.961C34.8809 39.1811 35.1408 38.1414 35.1408 37.1018L33.3212 13.188C33.3212 12.4083 32.8014 11.8883 32.0215 11.8883H25.0034V15.0075C25.0034 15.7873 24.4836 16.3073 23.7037 16.3073C22.9239 16.3073 22.4039 15.7874 22.4039 15.0075V11.8883H15.1259V15.0075C15.1259 15.7873 14.6061 16.3073 13.8262 16.3073C13.3063 16.3073 12.5265 15.7874 12.5265 15.0075V11.8883H5.2484C4.46866 11.8883 3.94868 12.4081 3.94868 13.188L2.12913 37.1018C2.12943 38.1414 2.38934 39.1812 3.16909 39.961Z" fill="white"/>
</svg>
