<svg width="57" height="57" viewBox="0 0 57 57" fill="none" xmlns="http://www.w3.org/2000/svg">
<g filter="url(#filter0_d_2460_2)">
<circle cx="28.5" cy="24.5" r="24.5" fill="white"/>
</g>
<path d="M13.0585 36.0033L14.2316 20.5851C14.3992 19.2444 15.4047 18.2389 16.7455 18.2389H21.1027V16.7307C21.1027 14.552 22.9463 12.7085 25.1248 12.7085C27.3034 12.7085 29.147 14.552 29.147 16.7307V18.2389H33.8394C35.1801 18.2389 36.1857 19.2445 36.3532 20.5852L37.5264 36.0033C37.5264 37.1764 37.1912 38.3496 36.3532 39.1874C35.6829 40.0254 34.5098 40.5281 33.3367 40.5281H17.0806C15.9075 40.5281 14.7343 40.0254 14.2316 39.1874C13.3936 38.3496 12.8909 37.1764 13.0585 36.0033ZM27.4711 16.7307C27.4711 15.39 26.4656 14.3844 25.1248 14.3844C23.7841 14.3844 22.7786 15.39 22.7786 16.7307V18.2389H27.471L27.4711 16.7307ZM15.0696 38.0143C15.5723 38.517 16.2427 38.8523 16.913 38.8523H33.1692C33.8395 38.8523 34.5099 38.5171 35.0126 38.0143C35.5154 37.5115 35.6829 36.8412 35.6829 36.1709L34.5098 20.7528C34.5098 20.2501 34.1746 19.9148 33.6718 19.9148H29.147V21.9259C29.147 22.4286 28.8118 22.7639 28.309 22.7639C27.8063 22.7639 27.471 22.4287 27.471 21.9259V19.9148H22.7786V21.9259C22.7786 22.4286 22.4434 22.7639 21.9406 22.7639C21.6055 22.7639 21.1026 22.4287 21.1026 21.9259V19.9148H16.4102C15.9075 19.9148 15.5722 20.25 15.5722 20.7528L14.3991 36.1709C14.3993 36.8412 14.5669 37.5116 15.0696 38.0143Z" fill="black"/>
<circle cx="37.8488" cy="16.4408" r="8.05921" fill="black"/>
<path d="M37.0627 21.8567V11.0327H39.0787V21.8567H37.0627ZM32.9827 17.4407V15.4727H43.1587V17.4407H32.9827Z" fill="white"/>
<defs>
<filter id="filter0_d_2460_2" x="0" y="0" width="57" height="57" filterUnits="userSpaceOnUse" color-interpolation-filters="sRGB">
<feFlood flood-opacity="0" result="BackgroundImageFix"/>
<feColorMatrix in="SourceAlpha" type="matrix" values="0 0 0 0 0 0 0 0 0 0 0 0 0 0 0 0 0 0 127 0" result="hardAlpha"/>
<feOffset dy="4"/>
<feGaussianBlur stdDeviation="2"/>
<feComposite in2="hardAlpha" operator="out"/>
<feColorMatrix type="matrix" values="0 0 0 0 0 0 0 0 0 0 0 0 0 0 0 0 0 0 0.25 0"/>
<feBlend mode="normal" in2="BackgroundImageFix" result="effect1_dropShadow_2460_2"/>
<feBlend mode="normal" in="SourceGraphic" in2="effect1_dropShadow_2460_2" result="shape"/>
</filter>
</defs>
</svg>
