<svg width="32" height="33" viewBox="0 0 32 33" fill="none" xmlns="http://www.w3.org/2000/svg">
<path d="M0.0308857 27.8812L1.17256 12.8764C1.33565 11.5716 2.31424 10.593 3.61901 10.593H7.85946V9.12525C7.85946 7.00498 9.65356 5.21097 11.7737 5.21097C13.8939 5.21097 15.688 7.00498 15.688 9.12525V10.5931H20.2547C21.5594 10.5931 22.538 11.5717 22.7011 12.8765L23.8428 27.8812C23.8428 29.0229 23.5166 30.1645 22.7011 30.98C22.0488 31.7955 20.9071 32.2847 19.7654 32.2847H3.94517C2.80349 32.2847 1.66182 31.7955 1.17256 30.98C0.357052 30.1645 -0.132198 29.0229 0.0308857 27.8812ZM14.0571 9.12525C14.0571 7.82049 13.0785 6.8419 11.7737 6.8419C10.469 6.8419 9.49039 7.82049 9.49039 9.12525V10.5931H14.057L14.0571 9.12525ZM1.98808 29.8383C2.47733 30.3275 3.12976 30.6538 3.78209 30.6538H19.6024C20.2547 30.6538 20.9072 30.3276 21.3964 29.8383C21.8857 29.3489 22.0488 28.6966 22.0488 28.0443L20.9071 13.0395C20.9071 12.5503 20.5809 12.224 20.0916 12.224H15.688V14.1812C15.688 14.6705 15.3619 14.9967 14.8725 14.9967C14.3833 14.9967 14.057 14.6706 14.057 14.1812V12.224H9.49039V14.1812C9.49039 14.6705 9.16422 14.9967 8.67488 14.9967C8.34871 14.9967 7.85936 14.6706 7.85936 14.1812V12.224H3.29274C2.80349 12.224 2.47723 12.5502 2.47723 13.0395L1.33555 28.0443C1.33574 28.6966 1.49883 29.349 1.98808 29.8383Z" fill="black"/>
<circle cx="24.1566" cy="8.84314" r="7.84314" fill="black"/>
<path d="M23.3 12.005V4.85H24.98V12.005H23.3ZM20.75 9.245V7.625H27.515V9.245H20.75Z" fill="white"/>
</svg>
