<svg width="16" height="28" viewBox="0 0 16 28" fill="none" xmlns="http://www.w3.org/2000/svg">
<path d="M13.0862 0.273996L0.27501 13.0861C0.0917661 13.2691 -6.10062e-07 13.4797 -5.99648e-07 13.7179C-5.89235e-07 13.9561 0.0917661 14.1671 0.27501 14.3503L13.0862 27.1613C13.2697 27.3448 13.4803 27.4363 13.7186 27.4363C13.9569 27.4363 14.1678 27.3445 14.3509 27.1613L15.7251 25.787C15.9083 25.6037 15.9999 25.3929 15.9999 25.1546C15.9999 24.9164 15.9083 24.7055 15.7251 24.5223L4.92091 13.7179L15.7258 2.91317C15.909 2.73002 16 2.51905 16 2.28121C16 2.04259 15.9084 1.83171 15.7258 1.64856L14.351 0.274093C14.1678 0.0909456 13.9569 -5.21085e-05 13.7187 -5.20981e-05C13.4803 -0.000149362 13.2694 0.0908483 13.0862 0.273996Z" fill="#BFBFBF"/>
</svg>
