<svg width="20" height="20" viewBox="0 0 20 20" fill="none" xmlns="http://www.w3.org/2000/svg">
<rect width="20" height="20" rx="2" fill="white"/>
<path d="M16.937 14.1595L16.8673 13.9495C16.7023 13.4588 16.1613 12.9471 15.6644 12.8123L13.8251 12.3098C13.3263 12.174 12.6148 12.3565 12.2498 12.7215L11.5842 13.3873C9.16495 12.7335 7.26791 10.836 6.61508 8.41684L7.28079 7.75102C7.64573 7.38601 7.82817 6.67531 7.69247 6.17643L7.19092 4.33589C7.05522 3.83792 6.54267 3.29687 6.05307 3.13361L5.84311 3.06301C5.35256 2.89976 4.65297 3.06486 4.28806 3.42983L3.2923 4.42668C3.11441 4.60367 3.00071 5.10988 3.00071 5.11173C2.96589 8.27375 4.20552 11.3202 6.4418 13.5569C8.67259 15.7881 11.7071 17.0262 14.8593 16.9996C14.8758 16.9996 15.3966 16.8877 15.5745 16.7107L16.5703 15.7147C16.9352 15.3498 17.1002 14.6501 16.937 14.1595Z" fill="#282828"/>
</svg>
