<svg width="36" height="39" viewBox="0 0 36 39" fill="none" xmlns="http://www.w3.org/2000/svg">
<path d="M33.9319 31.3177L23.5911 19.5002L33.9319 7.68191C35.6891 5.92395 35.6891 3.07475 33.9319 1.31754C32.1732 -0.439679 29.324 -0.438929 27.5675 1.31829L17.6249 12.6821L7.68238 1.31829C5.92517 -0.438179 3.07672 -0.438929 1.31801 1.31754C-0.43921 3.0755 -0.43921 5.9247 1.31801 7.68191L11.6588 19.5002L1.31801 31.3177C-0.43921 33.0749 -0.43921 35.9241 1.31726 37.6813C3.07522 39.4393 5.92442 39.4393 7.68238 37.6813L17.6249 26.3176L27.5675 37.6813C29.3262 39.4393 32.1754 39.4393 33.9326 37.6813C35.6891 35.9241 35.6891 33.0749 33.9319 31.3177Z" fill="#030104"/>
</svg>
